<?xml version="1.0" encoding="UTF-8" standalone="no"?>
<svg
   xmlns:dc="http://purl.org/dc/elements/1.1/"
   xmlns:cc="http://creativecommons.org/ns#"
   xmlns:rdf="http://www.w3.org/1999/02/22-rdf-syntax-ns#"
   xmlns:svg="http://www.w3.org/2000/svg"
   xmlns="http://www.w3.org/2000/svg"
   xmlns:sodipodi="http://sodipodi.sourceforge.net/DTD/sodipodi-0.dtd"
   xmlns:inkscape="http://www.inkscape.org/namespaces/inkscape"
   width="100.0px"
   height="100.0px"
   viewBox="0 0 100.0 100.0"
   version="1.1"
   id="SVGRoot"
   sodipodi:docname="dogechatbot.svg"
   inkscape:version="1.0.1 (3bc2e813f5, 2020-09-07)">
  <defs
     id="defs2001" />
  <sodipodi:namedview
     id="base"
     pagecolor="#ffffff"
     bordercolor="#666666"
     borderopacity="1.0"
     inkscape:pageopacity="0.0"
     inkscape:pageshadow="2"
     inkscape:zoom="2.8"
     inkscape:cx="51.612103"
     inkscape:cy="81.871831"
     inkscape:document-units="px"
     inkscape:current-layer="layer1"
     inkscape:document-rotation="0"
     showgrid="true"
     inkscape:window-width="1343"
     inkscape:window-height="1030"
     inkscape:window-x="883"
     inkscape:window-y="42"
     inkscape:window-maximized="0">
    <inkscape:grid
       type="xygrid"
       id="grid2571" />
  </sodipodi:namedview>
  <metadata
     id="metadata2004">
    <rdf:RDF>
      <cc:Work
         rdf:about="">
        <dc:format>image/svg+xml</dc:format>
        <dc:type
           rdf:resource="http://purl.org/dc/dcmitype/StillImage" />
        <dc:title></dc:title>
      </cc:Work>
    </rdf:RDF>
  </metadata>
  <g
     inkscape:label="Capa 1"
     inkscape:groupmode="layer"
     id="layer1">
    <rect
       style="fill:#1e1e1e;fill-opacity:1;stroke:#000000;stroke-width:0;stroke-linecap:round;stroke-linejoin:round;stroke-dasharray:none"
       id="rect2678"
       width="100"
       height="100"
       x="0"
       y="0" />
    <g
       id="g2754"
       transform="matrix(0.89543807,0,0,0.89543807,5.1086091,5.0146332)">
      <path
         style="fill:#ffffff;fill-opacity:1;stroke:#000000;stroke-width:0;stroke-linecap:round;stroke-linejoin:round;stroke-dasharray:none"
         id="path2592-3"
         d="m 37.281325,27.006098 c -1.155839,0.521016 -2.426595,0.646116 -3.612389,1.08491 -3.982563,1.620754 -7.892639,3.595814 -11.225725,6.347224 -0.772492,0.597097 -1.254422,1.445385 -1.861082,2.188215 -0.310437,0.380108 -0.643454,0.741314 -0.957226,1.118682 -0.881602,0.988818 -1.216317,2.262451 -1.731036,3.445798 -0.418781,1.06675 -0.807969,2.139953 -1.236511,3.203688 -0.435305,1.356226 -0.893827,2.717768 -1.033685,4.140039 -0.117717,1.61555 -0.300745,3.21729 -0.332139,4.83782 -0.04127,1.574258 -0.133508,3.143985 -0.100305,4.718794 -0.0052,1.325135 -0.03205,2.649184 -0.04153,3.974095 C 15.161497,63.049192 15.144497,64.026845 15,65 c -0.203816,0.927521 -0.125393,1.868154 -0.130433,2.808098 -8.61e-4,0.21282 0.0093,0.426044 -0.0043,0.63845 -0.02722,0.433263 -0.101434,0.629782 -0.147189,1.052724 -0.06858,0.633703 -0.05453,1.279992 -0.07469,1.916253 0.0078,1.088434 -0.156683,2.152462 -0.29823,3.226147 -0.0078,0.62258 -0.240077,1.282981 -0.161154,1.907999 0.01801,0.142563 0.07375,0.277777 0.11061,0.416662 0.513538,0.89586 1.375438,1.468481 2.291742,1.893836 1.209287,0.349317 2.480931,0.47477 3.730097,0.619263 1.195167,0.05049 2.372957,0.189852 3.550817,0.392341 0.26818,0.06539 0.537816,0.124971 0.804532,0.196055 0.515356,0.137342 1.013508,0.337385 1.532888,0.45866 0.70308,0.16417 2.539608,0.446186 3.10961,0.5437 0.744846,0.127427 1.488417,0.26221 2.232617,0.393315 2.13817,0.36709 4.250115,0.864519 6.353083,1.392884 0.740461,0.186043 1.987895,0.537325 2.773922,0.654973 0.449201,0.06728 0.904648,0.08253 1.356967,0.123868 0.509033,-0.01258 1.018566,-0.01189 1.527091,-0.03773 0.482757,-0.02455 2.66476,-0.209726 3.168667,-0.248848 1.244376,-0.09662 2.464182,-0.169166 3.699711,-0.348059 1.401094,-0.383028 3.106268,-0.326057 4.45195,-0.884049 0.309748,-0.128435 0.602222,-0.295094 0.903329,-0.442645 4.437433,-2.387577 8.831179,-4.859643 13.137903,-7.47671 0.863838,-0.679827 1.910842,-1.140986 2.732062,-1.878414 0.800137,-0.71851 1.352255,-1.6833 1.905208,-2.588172 0.742235,-1.469205 1.550204,-2.94507 1.958974,-4.549007 0.382538,-1.137911 0.685023,-2.295473 0.898773,-3.476641 0.218247,-1.331544 0.61611,-2.621727 0.907956,-3.936506 0.177687,-1.470489 0.196382,-2.955874 0.232367,-4.435288 0.157201,-1.586113 -0.384604,-3.033978 -0.947465,-4.484515 -0.686452,-1.559388 -1.190988,-3.206186 -1.973439,-4.719457 -0.979358,-1.830825 -1.727814,-3.768081 -2.529529,-5.679329 -0.528623,-1.16827 -1.107335,-2.316924 -1.756468,-3.423028 -0.08503,-0.12149 -0.140168,-0.270756 -0.255076,-0.364488 -1.077622,-0.879018 -3.320879,-1.369038 -4.57394,-1.758054 -3.136162,-0.973655 -1.918354,-0.577023 -4.935774,-1.633642 -2.117795,-0.62563 -4.058058,-1.729855 -6.150205,-2.419453 -0.990739,-0.326564 -2.845695,-0.805884 -3.779582,-1.056368 -2.232979,-0.570227 -4.410571,-1.325919 -6.569408,-2.126255 -1.362318,-0.505053 -1.72249,-0.722145 -3.118243,-1.025398 -0.48199,-0.104725 -0.974465,-0.153409 -1.461693,-0.230101 -1.55073,-0.127357 -0.811949,-0.09434 -2.215619,-0.114478 0,0 -6.870731,5.038924 -6.870731,5.038924 v 0 c 1.485169,-0.148637 0.706113,-0.09551 2.338109,-0.144794 0.486996,0.04135 0.976826,0.0572 1.460987,0.123971 1.312539,0.180909 2.035891,0.409098 3.330536,0.787749 2.211863,0.64691 4.397158,1.378041 6.572019,2.139195 1.133586,0.417282 2.250691,0.87857 3.385492,1.292535 2.200836,0.802852 4.518243,1.262891 6.730037,2.033177 1.828671,0.616567 2.982287,0.966272 4.758432,1.720948 0.630438,0.267878 1.246884,0.568529 1.85761,0.878751 0.684014,0.347447 1.394297,0.699298 1.864682,1.323058 0.739289,0.998225 1.293914,2.11104 1.894775,3.194211 0.936033,1.84529 1.765488,3.741271 2.509059,5.672178 0.57885,1.58351 1.480215,3.027112 1.978212,4.645996 0.447134,1.383416 0.790007,2.792462 0.706871,4.259315 -0.01904,1.44367 -0.04652,2.89929 -0.374689,4.312729 -0.288038,1.315658 -0.596735,2.626604 -0.883558,3.942495 -0.257704,1.156192 -0.632539,2.277734 -0.941512,3.420521 -0.464794,1.457136 -1.01866,2.891958 -1.823235,4.199776 -0.511247,0.725385 -0.683162,1.036864 -1.315365,1.665079 -1.00709,1.000732 -2.291484,1.668387 -3.463942,2.444445 -2.53754,1.483455 -5.008917,2.925359 5.466776,-3.138514 0.306035,-0.177152 -0.619073,0.341952 -0.926831,0.516098 -1.510946,0.854938 -0.539591,0.33325 -2.093699,1.168081 -0.325944,0.175094 -0.653465,0.347232 -0.980211,0.520853 -0.47266,0.253336 -0.91732,0.564798 -1.413379,0.76858 -1.226474,0.503847 -2.635081,0.486083 -3.897351,0.855861 -2.74899,0.5116 -5.551868,0.706655 -8.342055,0.837579 -3.659298,-0.171251 -7.239897,-1.008227 -10.805773,-1.802257 -2.343631,-0.610261 -4.667207,-1.291562 -6.968564,-2.045152 -1.160896,-0.403713 -2.363265,-0.502063 -3.588921,-0.530502 -1.181021,-0.09194 -2.355468,-0.245815 -3.519785,-0.462115 -0.669636,-0.215025 -1.382606,-0.563058 -1.771708,-1.173276 -0.04824,-0.681421 0.06694,-1.366151 0.119035,-2.044377 0.120698,-1.070549 0.116881,-2.137488 0.139255,-3.214551 0.09004,-1.217997 0.291854,-2.42625 0.25754,-3.652104 0.0386,-0.932931 0.169916,-1.854904 0.264347,-2.78333 0.08684,-0.995141 0.02154,-1.987947 0.0205,-2.985613 -0.01172,-1.309153 -0.04273,-2.617428 -0.0442,-3.926815 0.04066,-1.551565 -0.02481,-3.102442 0.05393,-4.653327 0.117234,-1.606203 0.245669,-3.212932 0.466216,-4.808848 0.268258,-1.361138 0.588266,-2.708896 1.170407,-3.976955 0.422968,-1.061159 0.847073,-2.121491 1.231497,-3.197528 0.433677,-1.154529 0.988955,-2.239819 1.796339,-3.183476 0.890467,-1.086505 1.725867,-2.244359 2.847297,-3.109266 2.769175,-1.996287 0.755296,-0.510377 -6.165936,3.426535 -0.18812,0.107008 0.365987,-0.231954 0.557191,-0.333362 0.632936,-0.33568 0.618807,-0.26868 1.297058,-0.542417 0.213078,-0.08598 0.421081,-0.184036 0.631618,-0.276054 1.085841,-0.501202 2.207392,-0.846728 3.408469,-0.937144 0,0 7.069713,-5.559346 7.069713,-5.559346 z" />
      <path
         style="fill:#ffffff;fill-opacity:1;stroke:#000000;stroke-width:0;stroke-linecap:round;stroke-linejoin:round;stroke-dasharray:none"
         id="path2594-7"
         d="m 30.561385,17.497082 c 0.32908,1.614482 0.528632,3.254335 0.735524,4.888623 0.431962,1.694758 0.801921,3.404282 1.201094,5.106811 0.247676,1.176395 0.569942,2.334715 0.730183,3.527805 0.269921,0.805454 0.576025,1.598372 0.861314,2.398691 0,0 7.601155,-4.193005 7.601155,-4.193005 v 0 c -0.253905,-0.781426 -0.462322,-1.573379 -0.63627,-2.376713 -0.275813,-1.165626 -0.703562,-2.286944 -0.973129,-3.454525 -0.435632,-1.68106 -0.812682,-3.374293 -1.096558,-5.087858 -0.333561,-1.593857 -0.669456,-3.224019 -0.476184,-4.859091 0,0 -7.947129,4.049262 -7.947129,4.049262 z" />
      <path
         style="fill:#ffffff;fill-opacity:1;stroke:#000000;stroke-width:0;stroke-linecap:round;stroke-linejoin:round;stroke-dasharray:none"
         id="path2602-4"
         d="m 34.067833,40.011336 c 0.240276,-0.294516 0.528727,-0.571174 0.848271,-0.779616 0.116786,-0.07616 0.491975,-0.262512 0.37157,-0.192186 -7.44834,4.350549 -8.906518,6.687504 -7.303606,4.164213 -0.0261,-0.135826 0.08055,-0.02843 0.06728,-0.01008 -0.02102,0.02903 -0.08072,0.0096 -0.09988,0.03997 -0.04221,0.06694 -0.04049,0.153375 -0.06875,0.227301 -0.09832,0.257041 -0.158423,0.336447 -0.299987,0.580479 -0.446392,0.616523 -0.997872,1.064777 -1.679621,1.397837 2.441698,-1.416317 4.883404,-2.832634 7.325101,-4.248943 -0.154245,-1.89e-4 -0.552031,0.423546 -0.699901,0.345475 -0.02395,-0.07788 -0.07745,-0.233823 -0.06263,-0.302287 0.01292,-0.05988 0.07581,-0.09677 0.105544,-0.150256 0.14059,-0.25282 0.251639,-0.383838 0.468645,-0.582382 2.941934,-1.062787 0.426035,-0.173707 -7.024924,4.206478 -0.09405,0.05531 0.180228,-0.123816 0.27658,-0.17499 0.286349,-0.152083 0.592264,-0.218212 0.906492,-0.28149 0.759026,-0.123946 0.967495,-0.140789 1.522696,0.401111 0.619677,0.767978 0.776713,1.74445 0.892449,2.695171 0.225294,1.315124 -0.466336,2.347767 -1.339858,3.254138 -2.139479,2.289149 -6.589318,3.934517 6.595279,-3.64062 0.04807,-0.02766 -0.0069,0.145535 -0.06134,0.154684 -0.105337,0.01766 -0.255206,-0.383692 -0.349102,-0.581228 -0.305828,-1.162016 -0.69792,-2.565858 -0.42047,-3.763127 -0.513358,-0.07349 1.159699,-0.611484 0.888572,-0.449477 -2.42146,1.446884 -4.903424,2.790317 -7.33655,4.217489 -0.08839,0.05186 0.193177,-0.07418 0.294836,-0.08712 0.102838,-0.01309 0.20721,0.0069 0.310816,0.01017 0.338161,0.06539 0.630248,0.238242 0.921309,0.411613 0,0 7.491468,-4.8061 7.491468,-4.8061 v 0 c -0.350076,-0.245083 -0.715848,-0.446702 -1.091846,-0.650303 -3.359311,-1.408185 -4.1284,1.401059 -8.892906,4.108326 -0.379832,0.215835 -0.432238,0.831911 -0.486005,1.194116 0.06341,1.37288 0.366599,2.728693 0.668585,4.065458 0.156132,0.505897 0.19832,0.833237 0.538238,1.24753 2.412139,2.939927 6.934276,-2.265691 8.968676,-4.862632 0.835684,-1.241603 1.321163,-2.398984 1.066337,-3.923292 -0.189817,-1.117966 -0.399673,-2.269007 -1.061995,-3.217867 -0.535542,-0.611898 -1.079845,-1.207022 -1.968753,-1.107845 -3.600172,0.188878 -7.524584,2.13755 -9.505837,5.136249 -0.327676,0.670704 -0.399483,1.385182 -0.04342,2.068128 0.28174,0.411674 0.583114,0.75646 1.130829,0.708344 0.11515,-0.01017 0.237476,-0.01947 0.33835,-0.07598 2.659608,-1.488521 5.286694,-3.034418 7.930054,-4.551635 0.616731,-0.511532 1.15459,-1.105923 1.464485,-1.857601 0.325935,-0.907973 0.434417,-1.583881 -0.332596,-2.308482 -3.029739,-1.617265 -0.356114,-0.319379 -8.291467,4.272729 -0.116459,0.06737 -0.191678,0.189163 -0.281051,0.289744 -0.349171,0.392987 -0.666035,0.813173 -0.787835,1.335413 0,0 8.097807,-3.926677 8.097807,-3.926677 z" />
      <path
         style="fill:#ffffff;fill-opacity:1;stroke:#000000;stroke-width:0;stroke-linecap:round;stroke-linejoin:round;stroke-dasharray:none"
         id="path2604-3"
         d="m 53.731448,45.586491 c -0.566082,0.05066 -1.120655,0.08778 -1.537583,-0.346492 -0.344019,-0.656584 0.260099,-1.258376 0.719276,-1.679311 2.779048,-1.333233 5.239242,-2.99378 -6.758674,3.978049 -0.08339,0.0485 0.180039,-0.07392 0.25842,-0.130157 0.04316,-0.03093 0.04618,-0.114435 0.09815,-0.125574 0.05858,-0.01258 0.110661,0.04601 0.165987,0.06892 0.412664,0.538307 0.647728,1.311816 0.46793,1.974396 -0.121326,0.347301 -0.369804,0.568675 -0.614809,0.821796 -0.08184,0.08451 -0.139195,0.193108 -0.23073,0.266974 -0.15552,0.125505 -0.433892,0.207099 -0.615749,0.271962 2.447478,-1.414628 4.894965,-2.829257 7.342443,-4.243885 -0.17431,0.09689 -0.374715,0.231781 -0.587646,0.2186 -0.106655,-0.0069 -0.106405,-0.09142 -0.149377,-0.178368 -0.113608,-0.519845 -0.225493,-1.113547 -0.06677,-1.631187 0.131312,-0.216248 0.285462,-0.403635 0.513014,-0.524213 0.08167,-0.04333 0.336773,-0.150721 0.257342,-0.103415 -8.068534,4.805134 -9.714832,5.927306 -7.14414,4.186026 0.393659,-0.172828 0.188042,-0.103123 0.617876,-0.206031 0,0 7.136378,-5.330502 7.136378,-5.330502 v 0 c -0.479673,0.01783 -0.241577,0.0093 -0.714297,0.02559 -3.309714,0.506276 -0.561482,0.04644 -8.187319,4.669912 -0.299306,0.181469 -0.45474,0.939953 -0.491656,1.253974 0.01551,0.70501 0.04971,1.420564 0.310075,2.085118 0.144028,0.285238 0.222538,0.496885 0.461736,0.726573 2.403007,2.307439 13.169271,-7.675185 9.009417,-4.170562 0.596528,-0.569288 1.025062,-1.269232 1.096851,-2.107388 -0.04187,-0.953082 -0.272358,-1.888219 -0.828731,-2.678932 -0.230739,-0.278983 -0.634728,-0.937402 -1.104924,-0.67882 -1.793401,0.986328 -6.492518,2.462408 -8.410011,5.059781 -0.543735,0.948051 -0.716985,1.727547 -0.207082,2.754116 0.473798,0.654491 1.095301,1.054361 1.928728,1.051897 0,0 7.265837,-5.27894 7.265837,-5.27894 z" />
      <path
         style="fill:#ffffff;fill-opacity:1;stroke:#000000;stroke-width:0;stroke-linecap:round;stroke-linejoin:round;stroke-dasharray:none"
         id="path2612-8"
         d="m 70.102942,62.039113 c 0.807348,0.613482 1.488029,1.363273 2.131811,2.141115 0.67832,0.909585 1.204833,1.938842 1.665432,2.974439 0.484273,0.896585 0.752229,1.866656 1.047538,2.832747 0.346156,1.023519 0.605419,2.074865 0.893672,3.116916 0.39671,1.103855 0.583029,2.265233 0.772286,3.418384 0.296377,1.575913 0.599612,3.150205 0.937342,4.718157 0.314771,1.320595 0.450984,2.668818 0.513039,4.021788 0.114124,1.102072 0.21238,2.203661 0.245255,3.31135 4.91e-4,0.766677 0.02498,1.533078 0.02895,2.299669 -0.04256,0.790101 -0.393771,1.488408 -0.639543,2.224476 0,0 8.041309,-3.772751 8.041309,-3.772751 v 0 c 0.27503,-0.805419 0.529288,-1.617782 0.500884,-2.481215 -5e-4,-0.779901 0.01921,-1.560508 -0.07185,-2.337239 -0.104203,-1.084755 -0.236876,-2.166453 -0.351914,-3.250071 -0.09327,-1.391575 -0.249632,-2.775163 -0.643782,-4.119096 -0.379444,-1.551006 -0.642154,-3.124126 -0.838346,-4.708533 -0.194917,-1.192488 -0.357123,-2.39409 -0.776963,-3.534646 -0.315529,-1.043636 -0.532466,-2.111549 -0.849692,-3.154219 -0.303072,-1.003981 -0.717399,-1.963722 -1.161629,-2.913074 -0.530691,-1.083601 -1.065845,-2.177713 -1.785052,-3.15117 -0.635994,-0.803928 -1.341642,-1.544768 -1.995133,-2.33331 0,0 -7.66364,4.696283 -7.66364,4.696283 z" />
      <path
         style="fill:#ffffff;fill-opacity:1;stroke:#000000;stroke-width:0;stroke-linecap:round;stroke-linejoin:round;stroke-dasharray:none"
         id="path2614-8"
         d="m 18.162917,77.968969 c 0.05238,1.279604 -0.0728,2.55882 -0.132112,3.836459 -0.161612,1.553548 -0.445686,3.088719 -0.682146,4.631041 -0.110437,0.844695 -0.234994,1.687426 -0.353512,2.53101 0,0 7.771777,-3.845626 7.771777,-3.845626 v 0 c 0.07788,-0.824699 0.157984,-1.650278 0.329976,-2.462201 0.319311,-1.567659 0.497635,-3.149068 0.698885,-4.73599 0.136747,-1.302003 0.07142,-2.632289 0.406573,-3.908318 0,0 -8.039441,3.953625 -8.039441,3.953625 z" />
      <ellipse
         style="fill:#ffffff;fill-opacity:1;stroke:#000000;stroke-width:0;stroke-linecap:round;stroke-linejoin:round;stroke-dasharray:none"
         id="path2626-4"
         cx="34.66003"
         cy="16.036333"
         rx="6.0087624"
         ry="5.9935107" />
      <path
         style="fill:#ffffff;fill-opacity:1;stroke:#000000;stroke-width:0;stroke-linecap:round;stroke-linejoin:round;stroke-dasharray:none"
         id="path2628-1"
         d="m 67.848055,31.959283 c 0.04988,-0.07107 0.11166,-0.135136 0.149567,-0.21325 0.07159,-0.147499 0.10712,-0.310558 0.176653,-0.459039 0.365789,-0.781159 0.799853,-1.52778 1.231531,-2.274082 0.502934,-1.069455 1.093982,-2.091914 1.653087,-3.133172 0.425173,-0.983709 0.874813,-1.956856 1.350713,-2.917045 0.480654,-0.897911 0.91757,-1.822805 1.368193,-2.738299 0.07719,-0.169994 0.145199,-0.344493 0.231686,-0.509972 0.559044,-1.069722 -0.03308,0.20429 0.466715,-0.812096 0.182219,-0.370571 0.248486,-0.74563 0.444472,-1.109231 0.219685,-0.472393 0.118036,-0.23303 0.305061,-0.718036 0,0 -8.074004,3.725187 -8.074004,3.725187 v 0 c -0.197209,0.450157 -0.09613,0.220323 -0.303321,0.689459 -0.298083,0.810881 -0.712703,1.568676 -1.074116,2.352428 -0.473892,0.918096 -0.933336,1.842903 -1.396597,2.766272 -0.451476,0.951755 -0.842499,1.932259 -1.329236,2.867361 -0.552487,1.028542 -1.100779,2.058824 -1.62675,3.100995 -0.575645,1.04436 -1.110713,2.111566 -1.784898,3.097541 0,0 8.211244,-3.715021 8.211244,-3.715021 z" />
      <ellipse
         style="fill:#ffffff;fill-opacity:1;stroke:#000000;stroke-width:0;stroke-linecap:round;stroke-linejoin:round;stroke-dasharray:none"
         id="path2626-5-1"
         cx="70.348091"
         cy="17.918289"
         rx="6.0087624"
         ry="5.9935107" />
    </g>
  </g>
</svg>
